<mxfile host="app.diagrams.net" modified="2021-12-03T07:27:23.337Z" agent="5.0 (Windows NT 10.0; Win64; x64) AppleWebKit/537.36 (KHTML, like Gecko) Chrome/96.0.4664.45 Safari/537.36" etag="8XamSeb18DNoxHMuqEpl" version="15.8.8" type="github">
  <diagram id="J2EWIxKZFVFp0aU-S5zG" name="Page-1">
    <mxGraphModel dx="1209" dy="1764" grid="1" gridSize="10" guides="1" tooltips="1" connect="1" arrows="1" fold="1" page="1" pageScale="1" pageWidth="827" pageHeight="1169" background="none" math="0" shadow="0">
      <root>
        <mxCell id="0" />
        <mxCell id="1" parent="0" />
        <mxCell id="nPq5z5EwJPDNXG9xJYMo-1" value="" style="rounded=0;whiteSpace=wrap;html=1;dashed=1;" parent="1" vertex="1">
          <mxGeometry x="33.5" y="33" width="860" height="250" as="geometry" />
        </mxCell>
        <mxCell id="6nx5Ef50IVuq_1JzivEW-11" value="" style="edgeStyle=orthogonalEdgeStyle;rounded=0;orthogonalLoop=1;jettySize=auto;html=1;entryX=-0.005;entryY=0.453;entryDx=0;entryDy=0;entryPerimeter=0;" parent="1" source="6nx5Ef50IVuq_1JzivEW-2" target="6nx5Ef50IVuq_1JzivEW-3" edge="1">
          <mxGeometry relative="1" as="geometry" />
        </mxCell>
        <mxCell id="6nx5Ef50IVuq_1JzivEW-2" value="(*Transport).roundTrip" style="rounded=1;whiteSpace=wrap;html=1;arcSize=0;fontSize=14;fontStyle=1;fillColor=#d5e8d4;strokeColor=#82b366;" parent="1" vertex="1">
          <mxGeometry x="55" y="460" width="160" height="60" as="geometry" />
        </mxCell>
        <mxCell id="6nx5Ef50IVuq_1JzivEW-3" value="" style="rounded=0;whiteSpace=wrap;html=1;dashed=1;" parent="1" vertex="1">
          <mxGeometry x="305" y="400" width="430" height="200" as="geometry" />
        </mxCell>
        <mxCell id="6nx5Ef50IVuq_1JzivEW-8" value="" style="edgeStyle=orthogonalEdgeStyle;rounded=0;orthogonalLoop=1;jettySize=auto;html=1;entryX=0;entryY=0.5;entryDx=0;entryDy=0;" parent="1" source="6nx5Ef50IVuq_1JzivEW-4" target="6nx5Ef50IVuq_1JzivEW-6" edge="1">
          <mxGeometry relative="1" as="geometry">
            <Array as="points">
              <mxPoint x="435" y="490" />
              <mxPoint x="435" y="450" />
            </Array>
          </mxGeometry>
        </mxCell>
        <mxCell id="6nx5Ef50IVuq_1JzivEW-4" value="wantConn" style="rounded=1;whiteSpace=wrap;html=1;arcSize=0;fontSize=14;fontStyle=1;fillColor=#f5f5f5;strokeColor=#666666;fontColor=#333333;" parent="1" vertex="1">
          <mxGeometry x="314" y="460" width="110" height="60" as="geometry" />
        </mxCell>
        <mxCell id="6nx5Ef50IVuq_1JzivEW-5" value="(*Transport).getConn" style="text;html=1;strokeColor=none;fillColor=none;align=center;verticalAlign=middle;whiteSpace=wrap;rounded=0;dashed=1;" parent="1" vertex="1">
          <mxGeometry x="315" y="400" width="130" height="30" as="geometry" />
        </mxCell>
        <mxCell id="6nx5Ef50IVuq_1JzivEW-6" value="(*Transport).queueForIdleConn" style="rounded=1;whiteSpace=wrap;html=1;arcSize=0;fontSize=14;fontStyle=1;fillColor=#ffe6cc;strokeColor=#d79b00;" parent="1" vertex="1">
          <mxGeometry x="504" y="420" width="220" height="60" as="geometry" />
        </mxCell>
        <mxCell id="6nx5Ef50IVuq_1JzivEW-7" value="(*Transport).queueForDial" style="rounded=1;whiteSpace=wrap;html=1;arcSize=0;fontSize=14;fontStyle=1;fillColor=#dae8fc;strokeColor=#6c8ebf;" parent="1" vertex="1">
          <mxGeometry x="504" y="510" width="220" height="60" as="geometry" />
        </mxCell>
        <mxCell id="6nx5Ef50IVuq_1JzivEW-10" value="" style="edgeStyle=orthogonalEdgeStyle;rounded=0;orthogonalLoop=1;jettySize=auto;html=1;entryX=0;entryY=0.5;entryDx=0;entryDy=0;" parent="1" target="6nx5Ef50IVuq_1JzivEW-7" edge="1">
          <mxGeometry relative="1" as="geometry">
            <mxPoint x="424" y="497" as="sourcePoint" />
            <mxPoint x="514" y="470" as="targetPoint" />
            <Array as="points">
              <mxPoint x="435" y="497" />
              <mxPoint x="435" y="540" />
            </Array>
          </mxGeometry>
        </mxCell>
        <mxCell id="6nx5Ef50IVuq_1JzivEW-12" value="" style="edgeStyle=orthogonalEdgeStyle;rounded=0;orthogonalLoop=1;jettySize=auto;html=1;entryX=1;entryY=0.75;entryDx=0;entryDy=0;" parent="1" target="6nx5Ef50IVuq_1JzivEW-2" edge="1">
          <mxGeometry relative="1" as="geometry">
            <mxPoint x="305" y="505" as="sourcePoint" />
            <mxPoint x="225" y="505" as="targetPoint" />
          </mxGeometry>
        </mxCell>
        <mxCell id="6nx5Ef50IVuq_1JzivEW-13" value="&lt;span style=&quot;color: rgb(0 , 0 , 0) ; font-family: &amp;#34;helvetica&amp;#34; ; font-size: 14px ; font-style: normal ; letter-spacing: normal ; text-indent: 0px ; text-transform: none ; word-spacing: 0px ; background-color: rgb(248 , 249 , 250) ; display: inline ; float: none&quot;&gt;return persistConn&lt;/span&gt;" style="text;whiteSpace=wrap;html=1;fontStyle=0;align=left;" parent="1" vertex="1">
          <mxGeometry x="185" y="510" width="140" height="30" as="geometry" />
        </mxCell>
        <mxCell id="6nx5Ef50IVuq_1JzivEW-14" value="&lt;div style=&quot;text-align: center&quot;&gt;&lt;span style=&quot;font-size: 14px&quot;&gt;&lt;font face=&quot;helvetica&quot;&gt;call&lt;/font&gt;&lt;/span&gt;&lt;/div&gt;" style="text;whiteSpace=wrap;html=1;fontStyle=0" parent="1" vertex="1">
          <mxGeometry x="245" y="460" width="30" height="30" as="geometry" />
        </mxCell>
        <mxCell id="6nx5Ef50IVuq_1JzivEW-16" value="&lt;div style=&quot;text-align: center&quot;&gt;&lt;span style=&quot;font-size: 14px&quot;&gt;&lt;font face=&quot;helvetica&quot;&gt;reuse idle conn&lt;/font&gt;&lt;/span&gt;&lt;/div&gt;" style="text;whiteSpace=wrap;html=1;fontStyle=0" parent="1" vertex="1">
          <mxGeometry x="435" y="410" width="60" height="30" as="geometry" />
        </mxCell>
        <mxCell id="6nx5Ef50IVuq_1JzivEW-17" value="&lt;div&gt;&lt;span style=&quot;font-size: 14px&quot;&gt;&lt;font face=&quot;helvetica&quot;&gt;dial&amp;nbsp;&lt;/font&gt;&lt;/span&gt;&lt;/div&gt;&lt;div&gt;&lt;span style=&quot;font-size: 14px&quot;&gt;&lt;font face=&quot;helvetica&quot;&gt;new conn&lt;/font&gt;&lt;/span&gt;&lt;/div&gt;" style="text;whiteSpace=wrap;html=1;fontStyle=0;align=center;" parent="1" vertex="1">
          <mxGeometry x="434" y="495" width="70" height="31" as="geometry" />
        </mxCell>
        <mxCell id="Hpju6PKB836rXU66gbII-5" value="" style="rounded=1;whiteSpace=wrap;html=1;fontColor=default;strokeColor=default;fillColor=default;arcSize=5;" parent="1" vertex="1">
          <mxGeometry x="314.5" y="630" width="279" height="240" as="geometry" />
        </mxCell>
        <mxCell id="Hpju6PKB836rXU66gbII-6" value="" style="rounded=1;whiteSpace=wrap;html=1;strokeColor=#23445d;fillColor=#bac8d3;arcSize=24;fontColor=default;" parent="1" vertex="1">
          <mxGeometry x="324.5" y="645" width="259" height="40" as="geometry" />
        </mxCell>
        <mxCell id="Hpju6PKB836rXU66gbII-8" value="" style="rounded=1;whiteSpace=wrap;html=1;strokeColor=#d6b656;fillColor=#fff2cc;fontColor=default;" parent="1" vertex="1">
          <mxGeometry x="339" y="650" width="30" height="30" as="geometry" />
        </mxCell>
        <mxCell id="Hpju6PKB836rXU66gbII-9" value="" style="rounded=1;whiteSpace=wrap;html=1;strokeColor=#d6b656;fillColor=#fff2cc;fontColor=default;" parent="1" vertex="1">
          <mxGeometry x="380" y="650" width="30" height="30" as="geometry" />
        </mxCell>
        <mxCell id="Hpju6PKB836rXU66gbII-10" value="" style="rounded=1;whiteSpace=wrap;html=1;strokeColor=#d6b656;fillColor=#fff2cc;fontColor=default;" parent="1" vertex="1">
          <mxGeometry x="419" y="650" width="30" height="30" as="geometry" />
        </mxCell>
        <mxCell id="Hpju6PKB836rXU66gbII-11" value="" style="rounded=1;whiteSpace=wrap;html=1;strokeColor=#d6b656;fillColor=#fff2cc;fontColor=default;" parent="1" vertex="1">
          <mxGeometry x="459" y="650" width="30" height="30" as="geometry" />
        </mxCell>
        <mxCell id="Hpju6PKB836rXU66gbII-12" value="" style="rounded=1;whiteSpace=wrap;html=1;strokeColor=#d6b656;fillColor=#fff2cc;fontColor=default;" parent="1" vertex="1">
          <mxGeometry x="500" y="650" width="30" height="30" as="geometry" />
        </mxCell>
        <mxCell id="Hpju6PKB836rXU66gbII-13" value="" style="rounded=1;whiteSpace=wrap;html=1;strokeColor=#d6b656;fillColor=#fff2cc;fontColor=default;" parent="1" vertex="1">
          <mxGeometry x="539" y="650" width="30" height="30" as="geometry" />
        </mxCell>
        <mxCell id="Hpju6PKB836rXU66gbII-14" value="" style="rounded=1;whiteSpace=wrap;html=1;strokeColor=#23445d;fillColor=#bac8d3;arcSize=24;fontColor=default;" parent="1" vertex="1">
          <mxGeometry x="324.5" y="700" width="259" height="40" as="geometry" />
        </mxCell>
        <mxCell id="Hpju6PKB836rXU66gbII-15" value="" style="rounded=1;whiteSpace=wrap;html=1;strokeColor=#314354;fillColor=#647687;fontColor=#ffffff;" parent="1" vertex="1">
          <mxGeometry x="339" y="705" width="30" height="30" as="geometry" />
        </mxCell>
        <mxCell id="Hpju6PKB836rXU66gbII-16" value="" style="rounded=1;whiteSpace=wrap;html=1;strokeColor=#314354;fillColor=#647687;fontColor=#ffffff;" parent="1" vertex="1">
          <mxGeometry x="380" y="705" width="30" height="30" as="geometry" />
        </mxCell>
        <mxCell id="Hpju6PKB836rXU66gbII-17" value="" style="rounded=1;whiteSpace=wrap;html=1;strokeColor=#314354;fillColor=#647687;fontColor=#ffffff;" parent="1" vertex="1">
          <mxGeometry x="419" y="705" width="30" height="30" as="geometry" />
        </mxCell>
        <mxCell id="Hpju6PKB836rXU66gbII-18" value="" style="rounded=1;whiteSpace=wrap;html=1;strokeColor=#314354;fillColor=#647687;fontColor=#ffffff;" parent="1" vertex="1">
          <mxGeometry x="459" y="705" width="30" height="30" as="geometry" />
        </mxCell>
        <mxCell id="Hpju6PKB836rXU66gbII-19" value="" style="rounded=1;whiteSpace=wrap;html=1;strokeColor=#314354;fillColor=#647687;fontColor=#ffffff;" parent="1" vertex="1">
          <mxGeometry x="500" y="705" width="30" height="30" as="geometry" />
        </mxCell>
        <mxCell id="Hpju6PKB836rXU66gbII-20" value="" style="rounded=1;whiteSpace=wrap;html=1;strokeColor=#314354;fillColor=#647687;fontColor=#ffffff;" parent="1" vertex="1">
          <mxGeometry x="539" y="705" width="30" height="30" as="geometry" />
        </mxCell>
        <mxCell id="Hpju6PKB836rXU66gbII-21" value="" style="rounded=1;whiteSpace=wrap;html=1;strokeColor=#23445d;fillColor=#bac8d3;arcSize=24;fontColor=default;" parent="1" vertex="1">
          <mxGeometry x="324.5" y="760" width="259" height="40" as="geometry" />
        </mxCell>
        <mxCell id="Hpju6PKB836rXU66gbII-22" value="" style="rounded=1;whiteSpace=wrap;html=1;strokeColor=#314354;fillColor=#647687;fontColor=#ffffff;" parent="1" vertex="1">
          <mxGeometry x="339" y="765" width="30" height="30" as="geometry" />
        </mxCell>
        <mxCell id="Hpju6PKB836rXU66gbII-23" value="" style="rounded=1;whiteSpace=wrap;html=1;strokeColor=#314354;fillColor=#647687;fontColor=#ffffff;" parent="1" vertex="1">
          <mxGeometry x="380" y="765" width="30" height="30" as="geometry" />
        </mxCell>
        <mxCell id="Hpju6PKB836rXU66gbII-24" value="" style="rounded=1;whiteSpace=wrap;html=1;strokeColor=#314354;fillColor=#647687;fontColor=#ffffff;" parent="1" vertex="1">
          <mxGeometry x="419" y="765" width="30" height="30" as="geometry" />
        </mxCell>
        <mxCell id="Hpju6PKB836rXU66gbII-25" value="" style="rounded=1;whiteSpace=wrap;html=1;strokeColor=#314354;fillColor=#647687;fontColor=#ffffff;" parent="1" vertex="1">
          <mxGeometry x="459" y="765" width="30" height="30" as="geometry" />
        </mxCell>
        <mxCell id="Hpju6PKB836rXU66gbII-26" value="" style="rounded=1;whiteSpace=wrap;html=1;strokeColor=#314354;fillColor=#647687;fontColor=#ffffff;" parent="1" vertex="1">
          <mxGeometry x="500" y="765" width="30" height="30" as="geometry" />
        </mxCell>
        <mxCell id="Hpju6PKB836rXU66gbII-27" value="" style="rounded=1;whiteSpace=wrap;html=1;strokeColor=#314354;fillColor=#647687;fontColor=#ffffff;" parent="1" vertex="1">
          <mxGeometry x="539" y="765" width="30" height="30" as="geometry" />
        </mxCell>
        <mxCell id="Hpju6PKB836rXU66gbII-28" value="" style="rounded=1;whiteSpace=wrap;html=1;strokeColor=#23445d;fillColor=#bac8d3;arcSize=24;fontColor=default;" parent="1" vertex="1">
          <mxGeometry x="324.5" y="810" width="259" height="40" as="geometry" />
        </mxCell>
        <mxCell id="Hpju6PKB836rXU66gbII-29" value="" style="rounded=1;whiteSpace=wrap;html=1;strokeColor=#314354;fillColor=#647687;fontColor=#ffffff;" parent="1" vertex="1">
          <mxGeometry x="339" y="815" width="30" height="30" as="geometry" />
        </mxCell>
        <mxCell id="Hpju6PKB836rXU66gbII-30" value="" style="rounded=1;whiteSpace=wrap;html=1;strokeColor=#314354;fillColor=#647687;fontColor=#ffffff;" parent="1" vertex="1">
          <mxGeometry x="380" y="815" width="30" height="30" as="geometry" />
        </mxCell>
        <mxCell id="Hpju6PKB836rXU66gbII-31" value="" style="rounded=1;whiteSpace=wrap;html=1;strokeColor=#314354;fillColor=#647687;fontColor=#ffffff;" parent="1" vertex="1">
          <mxGeometry x="419" y="815" width="30" height="30" as="geometry" />
        </mxCell>
        <mxCell id="Hpju6PKB836rXU66gbII-32" value="" style="rounded=1;whiteSpace=wrap;html=1;strokeColor=#314354;fillColor=#647687;fontColor=#ffffff;" parent="1" vertex="1">
          <mxGeometry x="459" y="815" width="30" height="30" as="geometry" />
        </mxCell>
        <mxCell id="Hpju6PKB836rXU66gbII-33" value="" style="rounded=1;whiteSpace=wrap;html=1;strokeColor=#314354;fillColor=#647687;fontColor=#ffffff;" parent="1" vertex="1">
          <mxGeometry x="500" y="815" width="30" height="30" as="geometry" />
        </mxCell>
        <mxCell id="Hpju6PKB836rXU66gbII-34" value="" style="rounded=1;whiteSpace=wrap;html=1;strokeColor=#314354;fillColor=#647687;fontColor=#ffffff;" parent="1" vertex="1">
          <mxGeometry x="539" y="815" width="30" height="30" as="geometry" />
        </mxCell>
        <mxCell id="pzGNESv07BAN-wGDjxDe-1" value="(*Transport).dialConnFor&amp;nbsp;" style="rounded=1;whiteSpace=wrap;html=1;fillColor=#647687;strokeColor=#314354;fontStyle=1;fontColor=#ffffff;" parent="1" vertex="1">
          <mxGeometry x="80" y="865" width="160" height="40" as="geometry" />
        </mxCell>
        <mxCell id="pzGNESv07BAN-wGDjxDe-2" value="(*Transport).queueForDial" style="rounded=1;whiteSpace=wrap;html=1;fillColor=#647687;strokeColor=#314354;fontStyle=1;fontColor=#ffffff;" parent="1" vertex="1">
          <mxGeometry x="80" y="795" width="160" height="40" as="geometry" />
        </mxCell>
        <mxCell id="pzGNESv07BAN-wGDjxDe-3" value="(*Transport).dialConn&amp;nbsp;" style="rounded=1;whiteSpace=wrap;html=1;fillColor=#647687;strokeColor=#314354;fontStyle=1;fontColor=#ffffff;" parent="1" vertex="1">
          <mxGeometry x="80" y="935" width="160" height="40" as="geometry" />
        </mxCell>
        <mxCell id="pzGNESv07BAN-wGDjxDe-6" value="new TCP&amp;nbsp; connection" style="rounded=1;whiteSpace=wrap;html=1;strokeColor=#314354;fillColor=#647687;fontColor=#ffffff;fontStyle=1" parent="1" vertex="1">
          <mxGeometry x="80" y="1010" width="160" height="30" as="geometry" />
        </mxCell>
        <mxCell id="pzGNESv07BAN-wGDjxDe-9" value="" style="whiteSpace=wrap;html=1;rounded=1;fontStyle=1;strokeColor=default;fillColor=none;fontColor=default;dashed=1;" parent="1" vertex="1">
          <mxGeometry x="359" y="1050" width="161" height="100" as="geometry" />
        </mxCell>
        <mxCell id="pzGNESv07BAN-wGDjxDe-7" value="(*persistConn).writeLoop" style="rounded=1;whiteSpace=wrap;html=1;strokeColor=#314354;fillColor=#647687;fontColor=#ffffff;fontStyle=1" parent="1" vertex="1">
          <mxGeometry x="366" y="1065" width="144" height="25" as="geometry" />
        </mxCell>
        <mxCell id="pzGNESv07BAN-wGDjxDe-8" value="(*persistConn).readLoop" style="rounded=1;whiteSpace=wrap;html=1;strokeColor=#314354;fillColor=#647687;fontColor=#ffffff;fontStyle=1" parent="1" vertex="1">
          <mxGeometry x="366" y="1105" width="144" height="25" as="geometry" />
        </mxCell>
        <mxCell id="pzGNESv07BAN-wGDjxDe-10" value="Goroutine" style="text;html=1;strokeColor=none;fillColor=none;align=center;verticalAlign=middle;whiteSpace=wrap;rounded=0;dashed=1;fontColor=default;fontStyle=1" parent="1" vertex="1">
          <mxGeometry x="364" y="1026" width="60" height="30" as="geometry" />
        </mxCell>
        <mxCell id="pzGNESv07BAN-wGDjxDe-12" value="(*persistConn).roundTrip" style="rounded=1;whiteSpace=wrap;html=1;strokeColor=#314354;fillColor=#647687;fontColor=#ffffff;fontStyle=1" parent="1" vertex="1">
          <mxGeometry x="751" y="1065" width="149" height="30" as="geometry" />
        </mxCell>
        <mxCell id="pzGNESv07BAN-wGDjxDe-24" value="writech&lt;br&gt;channel" style="rounded=1;whiteSpace=wrap;html=1;fontColor=default;strokeColor=default;fillColor=none;fontStyle=1" parent="1" vertex="1">
          <mxGeometry x="600" y="1060" width="80" height="40" as="geometry" />
        </mxCell>
        <mxCell id="pzGNESv07BAN-wGDjxDe-28" value="" style="endArrow=classic;html=1;rounded=0;labelBackgroundColor=default;fontColor=default;strokeColor=default;strokeWidth=1;exitX=0.5;exitY=1;exitDx=0;exitDy=0;entryX=0.5;entryY=0;entryDx=0;entryDy=0;" parent="1" source="pzGNESv07BAN-wGDjxDe-2" target="pzGNESv07BAN-wGDjxDe-1" edge="1">
          <mxGeometry width="50" height="50" relative="1" as="geometry">
            <mxPoint x="370" y="825" as="sourcePoint" />
            <mxPoint x="420" y="775" as="targetPoint" />
          </mxGeometry>
        </mxCell>
        <mxCell id="pzGNESv07BAN-wGDjxDe-29" value="" style="endArrow=classic;html=1;rounded=0;labelBackgroundColor=default;fontColor=default;strokeColor=default;strokeWidth=1;exitX=0.5;exitY=1;exitDx=0;exitDy=0;entryX=0.5;entryY=0;entryDx=0;entryDy=0;" parent="1" edge="1">
          <mxGeometry width="50" height="50" relative="1" as="geometry">
            <mxPoint x="159.5" y="905" as="sourcePoint" />
            <mxPoint x="159.5" y="935" as="targetPoint" />
          </mxGeometry>
        </mxCell>
        <mxCell id="pzGNESv07BAN-wGDjxDe-36" value="NewRequest" style="rounded=1;whiteSpace=wrap;html=1;strokeColor=#314354;fillColor=#647687;fontColor=#ffffff;fontStyle=1" parent="1" vertex="1">
          <mxGeometry x="756.5" y="980" width="149" height="30" as="geometry" />
        </mxCell>
        <mxCell id="pzGNESv07BAN-wGDjxDe-38" value="" style="shape=flexArrow;endArrow=classic;html=1;rounded=0;labelBackgroundColor=default;fontColor=default;strokeColor=#666666;strokeWidth=1;exitX=0.5;exitY=1;exitDx=0;exitDy=0;fillColor=#f5f5f5;entryX=0.5;entryY=0;entryDx=0;entryDy=0;" parent="1" source="pzGNESv07BAN-wGDjxDe-36" edge="1">
          <mxGeometry width="50" height="50" relative="1" as="geometry">
            <mxPoint x="513.5" y="1070" as="sourcePoint" />
            <mxPoint x="831" y="1060" as="targetPoint" />
          </mxGeometry>
        </mxCell>
        <mxCell id="pzGNESv07BAN-wGDjxDe-44" value="new *persistConn" style="rounded=1;whiteSpace=wrap;html=1;strokeColor=#314354;fillColor=#647687;fontColor=#ffffff;fontStyle=1" parent="1" vertex="1">
          <mxGeometry x="80" y="1085" width="160" height="31" as="geometry" />
        </mxCell>
        <mxCell id="pzGNESv07BAN-wGDjxDe-48" value="" style="whiteSpace=wrap;html=1;rounded=1;fontStyle=1;strokeColor=default;fillColor=none;fontColor=default;dashed=1;" parent="1" vertex="1">
          <mxGeometry x="741.5" y="960" width="180" height="190" as="geometry" />
        </mxCell>
        <mxCell id="pzGNESv07BAN-wGDjxDe-49" value="Goroutine" style="text;html=1;strokeColor=none;fillColor=none;align=center;verticalAlign=middle;whiteSpace=wrap;rounded=0;dashed=1;fontColor=default;fontStyle=1" parent="1" vertex="1">
          <mxGeometry x="746.5" y="938" width="60" height="30" as="geometry" />
        </mxCell>
        <mxCell id="GXO4SjL9WCgsoghpwDpz-4" value="" style="edgeStyle=orthogonalEdgeStyle;rounded=0;orthogonalLoop=1;jettySize=auto;html=1;fontColor=#FFFFFF;" parent="1" source="GXO4SjL9WCgsoghpwDpz-2" target="GXO4SjL9WCgsoghpwDpz-3" edge="1">
          <mxGeometry relative="1" as="geometry" />
        </mxCell>
        <mxCell id="GXO4SjL9WCgsoghpwDpz-2" value="Golang HTTP client app" style="rounded=1;whiteSpace=wrap;html=1;labelBackgroundColor=#647687;fontColor=#FFFFFF;fillColor=#647687;align=center;verticalAlign=middle;arcSize=37;fontStyle=1" parent="1" vertex="1">
          <mxGeometry x="55" y="-10" width="100" height="40" as="geometry" />
        </mxCell>
        <mxCell id="GXO4SjL9WCgsoghpwDpz-6" value="" style="edgeStyle=orthogonalEdgeStyle;rounded=0;orthogonalLoop=1;jettySize=auto;html=1;fontColor=#FFFFFF;" parent="1" source="GXO4SjL9WCgsoghpwDpz-3" target="GXO4SjL9WCgsoghpwDpz-5" edge="1">
          <mxGeometry relative="1" as="geometry" />
        </mxCell>
        <mxCell id="GXO4SjL9WCgsoghpwDpz-3" value="(*Client).Get" style="rounded=1;whiteSpace=wrap;html=1;labelBackgroundColor=#647687;fontColor=#FFFFFF;fillColor=#647687;align=center;verticalAlign=middle;arcSize=37;fontStyle=1" parent="1" vertex="1">
          <mxGeometry x="60" y="100" width="90" height="40" as="geometry" />
        </mxCell>
        <mxCell id="GXO4SjL9WCgsoghpwDpz-8" value="" style="edgeStyle=orthogonalEdgeStyle;rounded=0;orthogonalLoop=1;jettySize=auto;html=1;fontColor=#FFFFFF;" parent="1" source="GXO4SjL9WCgsoghpwDpz-5" target="GXO4SjL9WCgsoghpwDpz-7" edge="1">
          <mxGeometry relative="1" as="geometry" />
        </mxCell>
        <mxCell id="GXO4SjL9WCgsoghpwDpz-5" value="NewRequest" style="rounded=1;whiteSpace=wrap;html=1;labelBackgroundColor=#647687;fontColor=#FFFFFF;fillColor=#647687;align=center;verticalAlign=middle;arcSize=37;fontStyle=1" parent="1" vertex="1">
          <mxGeometry x="249" y="100" width="90" height="40" as="geometry" />
        </mxCell>
        <mxCell id="GXO4SjL9WCgsoghpwDpz-10" value="" style="edgeStyle=orthogonalEdgeStyle;rounded=0;orthogonalLoop=1;jettySize=auto;html=1;fontColor=#FFFFFF;" parent="1" source="GXO4SjL9WCgsoghpwDpz-7" target="GXO4SjL9WCgsoghpwDpz-9" edge="1">
          <mxGeometry relative="1" as="geometry" />
        </mxCell>
        <mxCell id="GXO4SjL9WCgsoghpwDpz-7" value="(*Client).do" style="rounded=1;whiteSpace=wrap;html=1;labelBackgroundColor=#647687;fontColor=#FFFFFF;fillColor=#647687;align=center;verticalAlign=middle;arcSize=37;fontStyle=1" parent="1" vertex="1">
          <mxGeometry x="430" y="100" width="90" height="40" as="geometry" />
        </mxCell>
        <mxCell id="GXO4SjL9WCgsoghpwDpz-12" value="" style="edgeStyle=orthogonalEdgeStyle;rounded=0;orthogonalLoop=1;jettySize=auto;html=1;fontColor=#FFFFFF;" parent="1" source="GXO4SjL9WCgsoghpwDpz-9" target="GXO4SjL9WCgsoghpwDpz-11" edge="1">
          <mxGeometry relative="1" as="geometry" />
        </mxCell>
        <mxCell id="GXO4SjL9WCgsoghpwDpz-9" value="(*Client).send" style="rounded=1;whiteSpace=wrap;html=1;labelBackgroundColor=#647687;fontColor=#FFFFFF;fillColor=#647687;align=center;verticalAlign=middle;arcSize=37;fontStyle=1" parent="1" vertex="1">
          <mxGeometry x="610" y="100" width="90" height="40" as="geometry" />
        </mxCell>
        <mxCell id="GXO4SjL9WCgsoghpwDpz-14" value="" style="edgeStyle=orthogonalEdgeStyle;rounded=0;orthogonalLoop=1;jettySize=auto;html=1;fontColor=#FFFFFF;" parent="1" source="GXO4SjL9WCgsoghpwDpz-11" target="GXO4SjL9WCgsoghpwDpz-13" edge="1">
          <mxGeometry relative="1" as="geometry" />
        </mxCell>
        <mxCell id="GXO4SjL9WCgsoghpwDpz-11" value="send" style="rounded=1;whiteSpace=wrap;html=1;labelBackgroundColor=#647687;fontColor=#FFFFFF;fillColor=#647687;align=center;verticalAlign=middle;arcSize=37;fontStyle=1" parent="1" vertex="1">
          <mxGeometry x="755.5" y="100" width="90" height="40" as="geometry" />
        </mxCell>
        <mxCell id="GXO4SjL9WCgsoghpwDpz-16" value="" style="edgeStyle=orthogonalEdgeStyle;rounded=0;orthogonalLoop=1;jettySize=auto;html=1;fontColor=#FFFFFF;" parent="1" source="GXO4SjL9WCgsoghpwDpz-13" target="GXO4SjL9WCgsoghpwDpz-15" edge="1">
          <mxGeometry relative="1" as="geometry" />
        </mxCell>
        <mxCell id="GXO4SjL9WCgsoghpwDpz-13" value="(*Transport).roundTrip" style="rounded=1;whiteSpace=wrap;html=1;labelBackgroundColor=#647687;fontColor=#FFFFFF;fillColor=#647687;align=center;verticalAlign=middle;arcSize=37;fontStyle=1" parent="1" vertex="1">
          <mxGeometry x="725.5" y="220" width="150" height="40" as="geometry" />
        </mxCell>
        <mxCell id="GXO4SjL9WCgsoghpwDpz-18" value="" style="edgeStyle=orthogonalEdgeStyle;rounded=0;orthogonalLoop=1;jettySize=auto;html=1;fontColor=#FFFFFF;" parent="1" source="GXO4SjL9WCgsoghpwDpz-15" target="GXO4SjL9WCgsoghpwDpz-17" edge="1">
          <mxGeometry relative="1" as="geometry" />
        </mxCell>
        <mxCell id="GXO4SjL9WCgsoghpwDpz-15" value="(*Transport).getConn" style="rounded=1;whiteSpace=wrap;html=1;labelBackgroundColor=#647687;fontColor=#FFFFFF;fillColor=#647687;align=center;verticalAlign=middle;arcSize=37;fontStyle=1" parent="1" vertex="1">
          <mxGeometry x="468" y="220" width="150" height="40" as="geometry" />
        </mxCell>
        <mxCell id="GXO4SjL9WCgsoghpwDpz-17" value="(*persistConn).roundTrip" style="rounded=1;whiteSpace=wrap;html=1;labelBackgroundColor=#647687;fontColor=#FFFFFF;fillColor=#647687;align=center;verticalAlign=middle;arcSize=37;fontStyle=1" parent="1" vertex="1">
          <mxGeometry x="200" y="220" width="150" height="40" as="geometry" />
        </mxCell>
        <mxCell id="nPq5z5EwJPDNXG9xJYMo-4" value="Golang HTTP client workflow" style="text;html=1;strokeColor=none;fillColor=none;align=center;verticalAlign=middle;whiteSpace=wrap;rounded=0;dashed=1;fontSize=19;fontStyle=1" parent="1" vertex="1">
          <mxGeometry x="318.25" y="50" width="271.5" height="30" as="geometry" />
        </mxCell>
        <mxCell id="nPq5z5EwJPDNXG9xJYMo-5" value="Golang HTTP client app" style="rounded=1;whiteSpace=wrap;html=1;fillColor=#647687;strokeColor=#314354;fontStyle=1;fontColor=#ffffff;" parent="1" vertex="1">
          <mxGeometry x="756.5" y="845" width="150" height="40" as="geometry" />
        </mxCell>
        <mxCell id="nPq5z5EwJPDNXG9xJYMo-12" value="" style="endArrow=classic;html=1;rounded=0;fontSize=19;exitX=0.5;exitY=1;exitDx=0;exitDy=0;entryX=0.5;entryY=0;entryDx=0;entryDy=0;" parent="1" source="nPq5z5EwJPDNXG9xJYMo-5" target="pzGNESv07BAN-wGDjxDe-36" edge="1">
          <mxGeometry relative="1" as="geometry">
            <mxPoint x="406.5" y="920" as="sourcePoint" />
            <mxPoint x="506.5" y="920" as="targetPoint" />
          </mxGeometry>
        </mxCell>
        <mxCell id="nPq5z5EwJPDNXG9xJYMo-13" value="send new request" style="edgeLabel;resizable=0;html=1;align=center;verticalAlign=middle;dashed=1;fontSize=12;" parent="nPq5z5EwJPDNXG9xJYMo-12" connectable="0" vertex="1">
          <mxGeometry relative="1" as="geometry" />
        </mxCell>
        <mxCell id="nPq5z5EwJPDNXG9xJYMo-14" value="" style="endArrow=classic;html=1;rounded=0;fontSize=12;exitX=0;exitY=0.5;exitDx=0;exitDy=0;entryX=1;entryY=0.5;entryDx=0;entryDy=0;" parent="1" source="pzGNESv07BAN-wGDjxDe-12" target="pzGNESv07BAN-wGDjxDe-24" edge="1">
          <mxGeometry relative="1" as="geometry">
            <mxPoint x="645.5" y="1130" as="sourcePoint" />
            <mxPoint x="706.5" y="1080" as="targetPoint" />
          </mxGeometry>
        </mxCell>
        <mxCell id="nPq5z5EwJPDNXG9xJYMo-15" value="send to" style="edgeLabel;resizable=0;html=1;align=center;verticalAlign=middle;rounded=1;dashed=1;fontSize=12;" parent="nPq5z5EwJPDNXG9xJYMo-14" connectable="0" vertex="1">
          <mxGeometry relative="1" as="geometry">
            <mxPoint x="4" as="offset" />
          </mxGeometry>
        </mxCell>
        <mxCell id="nPq5z5EwJPDNXG9xJYMo-16" value="" style="endArrow=classic;html=1;rounded=0;fontSize=12;entryX=1;entryY=0.5;entryDx=0;entryDy=0;" parent="1" edge="1">
          <mxGeometry relative="1" as="geometry">
            <mxPoint x="600" y="1080" as="sourcePoint" />
            <mxPoint x="510" y="1079.5" as="targetPoint" />
          </mxGeometry>
        </mxCell>
        <mxCell id="nPq5z5EwJPDNXG9xJYMo-17" value="read from" style="edgeLabel;resizable=0;html=1;align=center;verticalAlign=middle;rounded=1;dashed=1;fontSize=12;" parent="nPq5z5EwJPDNXG9xJYMo-16" connectable="0" vertex="1">
          <mxGeometry relative="1" as="geometry" />
        </mxCell>
        <mxCell id="nPq5z5EwJPDNXG9xJYMo-22" value="" style="endArrow=classic;html=1;rounded=0;fontSize=12;exitX=1;exitY=0.5;exitDx=0;exitDy=0;entryX=0;entryY=0.5;entryDx=0;entryDy=0;" parent="1" source="pzGNESv07BAN-wGDjxDe-44" target="pzGNESv07BAN-wGDjxDe-9" edge="1">
          <mxGeometry relative="1" as="geometry">
            <mxPoint x="600" y="1010" as="sourcePoint" />
            <mxPoint x="700" y="1010" as="targetPoint" />
          </mxGeometry>
        </mxCell>
        <mxCell id="nPq5z5EwJPDNXG9xJYMo-23" value="create goroutine" style="edgeLabel;resizable=0;html=1;align=center;verticalAlign=middle;rounded=1;dashed=1;fontSize=12;" parent="nPq5z5EwJPDNXG9xJYMo-22" connectable="0" vertex="1">
          <mxGeometry relative="1" as="geometry" />
        </mxCell>
        <mxCell id="nPq5z5EwJPDNXG9xJYMo-24" value="" style="endArrow=classic;html=1;rounded=0;fontSize=12;exitX=0.5;exitY=1;exitDx=0;exitDy=0;entryX=0.5;entryY=0;entryDx=0;entryDy=0;" parent="1" source="pzGNESv07BAN-wGDjxDe-3" target="pzGNESv07BAN-wGDjxDe-6" edge="1">
          <mxGeometry relative="1" as="geometry">
            <mxPoint x="600" y="1010" as="sourcePoint" />
            <mxPoint x="700" y="1010" as="targetPoint" />
          </mxGeometry>
        </mxCell>
        <mxCell id="nPq5z5EwJPDNXG9xJYMo-25" value="call net.Dial()" style="edgeLabel;resizable=0;html=1;align=center;verticalAlign=middle;rounded=1;dashed=1;fontSize=12;" parent="nPq5z5EwJPDNXG9xJYMo-24" connectable="0" vertex="1">
          <mxGeometry relative="1" as="geometry" />
        </mxCell>
        <mxCell id="nPq5z5EwJPDNXG9xJYMo-26" value="" style="endArrow=classic;html=1;rounded=0;fontSize=12;exitX=0.5;exitY=1;exitDx=0;exitDy=0;entryX=0.5;entryY=0;entryDx=0;entryDy=0;" parent="1" source="pzGNESv07BAN-wGDjxDe-6" target="pzGNESv07BAN-wGDjxDe-44" edge="1">
          <mxGeometry relative="1" as="geometry">
            <mxPoint x="600" y="1010" as="sourcePoint" />
            <mxPoint x="700" y="1010" as="targetPoint" />
          </mxGeometry>
        </mxCell>
        <mxCell id="nPq5z5EwJPDNXG9xJYMo-27" value="call constructor&amp;nbsp;" style="edgeLabel;resizable=0;html=1;align=center;verticalAlign=middle;rounded=1;dashed=1;fontSize=12;" parent="nPq5z5EwJPDNXG9xJYMo-26" connectable="0" vertex="1">
          <mxGeometry relative="1" as="geometry" />
        </mxCell>
        <mxCell id="8OKZ1EZD1Po-fwL-eI_C-2" value="TCP/IP stack" style="rounded=1;whiteSpace=wrap;html=1;labelBackgroundColor=#647687;fontColor=#FFFFFF;fillColor=#647687;align=center;verticalAlign=middle;arcSize=37;fontStyle=1" parent="1" vertex="1">
          <mxGeometry x="225" y="330" width="100" height="40" as="geometry" />
        </mxCell>
        <mxCell id="8OKZ1EZD1Po-fwL-eI_C-5" value="" style="endArrow=classic;html=1;rounded=0;entryX=0.5;entryY=0;entryDx=0;entryDy=0;exitX=0.5;exitY=1;exitDx=0;exitDy=0;" parent="1" source="GXO4SjL9WCgsoghpwDpz-17" target="8OKZ1EZD1Po-fwL-eI_C-2" edge="1">
          <mxGeometry relative="1" as="geometry">
            <mxPoint x="450" y="320" as="sourcePoint" />
            <mxPoint x="550" y="320" as="targetPoint" />
          </mxGeometry>
        </mxCell>
        <mxCell id="8OKZ1EZD1Po-fwL-eI_C-6" value="socket write syscall via net.Conn&amp;nbsp;" style="edgeLabel;resizable=0;html=1;align=center;verticalAlign=middle;" parent="8OKZ1EZD1Po-fwL-eI_C-5" connectable="0" vertex="1">
          <mxGeometry relative="1" as="geometry" />
        </mxCell>
        <mxCell id="vsvxtZL9f-dgq6v5vD0c-2" value="" style="endArrow=classic;html=1;rounded=0;exitX=0.5;exitY=0;exitDx=0;exitDy=0;" edge="1" parent="1" source="pzGNESv07BAN-wGDjxDe-7">
          <mxGeometry relative="1" as="geometry">
            <mxPoint x="560" y="890" as="sourcePoint" />
            <mxPoint x="438" y="980" as="targetPoint" />
          </mxGeometry>
        </mxCell>
        <mxCell id="vsvxtZL9f-dgq6v5vD0c-3" value="write to socket via net.Conn" style="edgeLabel;resizable=0;html=1;align=center;verticalAlign=middle;" connectable="0" vertex="1" parent="vsvxtZL9f-dgq6v5vD0c-2">
          <mxGeometry relative="1" as="geometry" />
        </mxCell>
        <mxCell id="vsvxtZL9f-dgq6v5vD0c-4" value="TCP/IP stack" style="rounded=1;whiteSpace=wrap;html=1;labelBackgroundColor=#647687;fontColor=#FFFFFF;fillColor=#647687;align=center;verticalAlign=middle;arcSize=37;fontStyle=1" vertex="1" parent="1">
          <mxGeometry x="388" y="940" width="100" height="40" as="geometry" />
        </mxCell>
      </root>
    </mxGraphModel>
  </diagram>
</mxfile>
